# xmcd
#
# Track frame offsets: 
#        150
#        40894
#        63304
#        85074
#        104185
#        126535
#        150378
#        171946
#        191727
#        213087
#        232319
#        259393
#        285203
#        307964
#
# Disc length: 4518 seconds
#
# Revision: 0
# Processed by: cddbd v1.5.2PL0 Copyright (c) Steve Scherf et al.
# Submitted via: ExactAudioCopyFreeDBPlugin 1.0
#
DISCID=ca11a40e
DTITLE=藤　あや子 - 最新ヒット全曲集’06
DYEAR=2006
DGENRE=Vocal
TTITLE0=歌謡浪曲「港子守歌」～蝶々夫人に寄せて
TTITLE1=むらさき雨情
TTITLE2=新月（しんげつ）
TTITLE3=こころ酒
TTITLE4=曼珠沙華（マンジューシャカ）
TTITLE5=哀花（あいか）
TTITLE6=女のまごころ
TTITLE7=面影列車
TTITLE8=花よ命よ
TTITLE9=月の雫
TTITLE10=空夢の日々
TTITLE11=夢かげろう
TTITLE12=雪　深深（しんしん）
TTITLE13=さよならの小道
EXTD=
EXTT0=
EXTT1=
EXTT2=
EXTT3=
EXTT4=
EXTT5=
EXTT6=
EXTT7=
EXTT8=
EXTT9=
EXTT10=
EXTT11=
EXTT12=
EXTT13=
PLAYORDER=
